<svg xmlns="http://www.w3.org/2000/svg" width="100%" viewBox="0 0 448 961" fill="none"
    class="u-mob-show">
    <path d="M324 200L404 400L364 400L284 200L324 200Z" fill="#818181"></path>
    <rect width="40" height="40" transform="translate(244) rotate(90)" fill="#DB005F"></rect>
    <circle cx="224" cy="20" r="10" transform="rotate(90 224 20)" fill="#818181"></circle>
    <rect x="244" y="40" width="40" height="40" transform="rotate(90 244 40)" fill="#818181"></rect>
    <rect x="244" y="80" width="40" height="40" transform="rotate(90 244 80)" fill="#818181"></rect>
    <rect x="244" y="120" width="40" height="40" transform="rotate(90 244 120)" fill="#818181"></rect>
    <rect x="244" y="160" width="40" height="40" transform="rotate(90 244 160)" fill="#818181"></rect>
    <rect width="40" height="40" transform="translate(244 200) rotate(90)" fill="#818181"></rect>
    <circle cx="224" cy="220" r="10" transform="rotate(90 224 220)" fill="#C238DA"></circle>
    <rect x="244" y="240" width="40" height="40" transform="rotate(90 244 240)" fill="#818181"></rect>
    <rect x="244" y="280" width="40" height="40" transform="rotate(90 244 280)" fill="#818181"></rect>
    <rect width="40" height="40" transform="translate(244 320) rotate(90)" fill="#C238DA"></rect>
    <circle cx="224" cy="340" r="10" transform="rotate(90 224 340)" fill="#818181"></circle>
    <rect x="244" y="360" width="40" height="40" transform="rotate(90 244 360)" fill="#818181"></rect>
    <rect x="244" y="400" width="40" height="40" transform="rotate(90 244 400)" fill="#818181"></rect>
    <rect x="244" y="440" width="40" height="40" transform="rotate(90 244 440)" fill="#818181"></rect>
    <rect x="244" y="480" width="40" height="40" transform="rotate(90 244 480)" fill="#818181"></rect>
    <rect x="244" y="520" width="40" height="40" transform="rotate(90 244 520)" fill="#818181"></rect>
    <rect x="244" y="560" width="40" height="40" transform="rotate(90 244 560)" fill="#818181"></rect>
    <rect width="40" height="40" transform="translate(244 600) rotate(90)" fill="#818181"></rect>
    <circle cx="224" cy="620" r="10" transform="rotate(90 224 620)" fill="#C238DA"></circle>
    <rect x="244" y="640" width="40" height="40" transform="rotate(90 244 640)" fill="#818181"></rect>
    <rect x="244" y="680" width="40" height="40" transform="rotate(90 244 680)" fill="#818181"></rect>
    <rect x="244" y="720" width="40" height="40" transform="rotate(90 244 720)" fill="#818181"></rect>
    <rect x="244" y="760" width="40" height="40" transform="rotate(90 244 760)" fill="#818181"></rect>
    <rect x="244" y="800" width="40" height="40" transform="rotate(90 244 800)" fill="#818181"></rect>
    <rect width="40" height="40" transform="translate(244 840) rotate(90)" fill="#C238DA"></rect>
    <circle cx="224" cy="860" r="10" transform="rotate(90 224 860)" fill="#818181"></circle>
    <rect width="40" height="40" transform="translate(404 400) rotate(90)" fill="#F9A900"></rect>
    <circle cx="384" cy="420" r="10" transform="rotate(90 384 420)" fill="#818181"></circle>
    <rect x="404" y="440" width="40" height="40" transform="rotate(90 404 440)" fill="#818181"></rect>
    <rect x="404" y="480" width="40" height="40" transform="rotate(90 404 480)" fill="#818181"></rect>
    <rect x="404" y="520" width="40" height="40" transform="rotate(90 404 520)" fill="#818181"></rect>
    <rect x="404" y="560" width="40" height="40" transform="rotate(90 404 560)" fill="#818181"></rect>
    <rect width="40" height="40" transform="translate(404 600) rotate(90)" fill="#818181"></rect>
    <circle cx="384" cy="620" r="10" transform="rotate(90 384 620)" fill="#F9A900"></circle>
    <rect x="404" y="640" width="40" height="40" transform="rotate(90 404 640)" fill="#818181"></rect>
    <rect x="404" y="680" width="40" height="40" transform="rotate(90 404 680)" fill="#818181"></rect>
    <rect x="404" y="720" width="40" height="40" transform="rotate(90 404 720)" fill="#818181"></rect>
    <rect x="404" y="760" width="40" height="40" transform="rotate(90 404 760)" fill="#818181"></rect>
    <rect width="40" height="40" transform="translate(404 800) rotate(90)" fill="#F9A900"></rect>
    <circle cx="384" cy="820" r="10" transform="rotate(90 384 820)" fill="#818181"></circle>
    <rect width="40" height="40" transform="translate(84 400) rotate(90)" fill="#FF5900"></rect>
    <circle cx="64" cy="420" r="10" transform="rotate(90 64 420)" fill="#818181"></circle>
    <rect x="84" y="440" width="40" height="40" transform="rotate(90 84 440)" fill="#818181"></rect>
    <rect x="84" y="480" width="40" height="40" transform="rotate(90 84 480)" fill="#818181"></rect>
    <rect width="40" height="40" transform="translate(84 520) rotate(90)" fill="#818181"></rect>
    <circle cx="64" cy="540" r="10" transform="rotate(90 64 540)" fill="#FF5900"></circle>
    <rect x="84" y="560" width="40" height="40" transform="rotate(90 84 560)" fill="#818181"></rect>
    <rect x="84" y="600" width="40" height="40" transform="rotate(90 84 600)" fill="#818181"></rect>
    <rect width="40" height="40" transform="translate(84 640) rotate(90)" fill="#FF5900"></rect>
    <circle cx="64" cy="660" r="10" transform="rotate(90 64 660)" fill="#818181"></circle>
    <rect x="444" y="400" width="40" height="40" transform="rotate(90 444 400)" fill="#818181"></rect>
    <rect x="484" y="400" width="40" height="40" transform="rotate(90 484 400)" fill="#818181"></rect>
    <rect x="44" y="640" width="40" height="40" transform="rotate(90 44 640)" fill="#818181"></rect>
    <rect x="4" y="640" width="40" height="40" transform="rotate(90 4 640)" fill="#818181"></rect>
    <rect x="204" y="320" width="40" height="40" transform="rotate(90 204 320)" fill="#818181"></rect>
    <rect width="40" height="40" transform="translate(324 200) rotate(90)" fill="#818181"></rect>
    <circle cx="304" cy="220" r="10" transform="rotate(90 304 220)" fill="#F9A900"></circle>
    <rect x="284" y="200" width="40" height="40" transform="rotate(90 284 200)" fill="#818181"></rect>
    <path d="M124 200L44 400L84 400L164 200L124 200Z" fill="#818181"></path>
    <rect x="204" y="200" width="40" height="40" transform="rotate(90 204 200)" fill="#818181"></rect>
    <rect width="40" height="40" transform="translate(164 200) rotate(90)" fill="#818181"></rect>
    <circle cx="144" cy="220" r="10" transform="rotate(90 144 220)" fill="#FF5900"></circle>
    <rect width="259.457" height="56.2286" transform="translate(94 904)" fill="#C238DA" class="el-5 mobile-hide"
        ></rect>
    <path
        d="M112.842 929.114V917.274H118.058C120.234 917.274 121.546 918.346 121.546 920.09C121.546 921.242 120.89 922.202 119.866 922.634C121.386 923.114 122.202 924.154 122.202 925.626C122.202 927.658 120.778 929.114 118.234 929.114H112.842ZM117.738 919.258H115.258V921.866H117.738C118.746 921.866 119.178 921.274 119.178 920.554C119.178 919.834 118.746 919.258 117.738 919.258ZM117.978 923.738H115.258V927.114H117.978C119.242 927.114 119.786 926.394 119.786 925.418C119.786 924.474 119.242 923.738 117.978 923.738ZM126.963 920.442C129.331 920.442 130.931 922.218 130.931 924.858C130.931 927.498 129.331 929.274 126.963 929.274C124.579 929.274 122.979 927.498 122.979 924.858C122.979 922.218 124.579 920.442 126.963 920.442ZM126.963 922.138C125.923 922.138 125.491 923.162 125.491 924.858C125.491 926.554 125.923 927.578 126.963 927.578C127.987 927.578 128.419 926.554 128.419 924.858C128.419 923.162 127.987 922.138 126.963 922.138ZM135.768 920.442C138.136 920.442 139.736 922.218 139.736 924.858C139.736 927.498 138.136 929.274 135.768 929.274C133.384 929.274 131.784 927.498 131.784 924.858C131.784 922.218 133.384 920.442 135.768 920.442ZM135.768 922.138C134.728 922.138 134.296 923.162 134.296 924.858C134.296 926.554 134.728 927.578 135.768 927.578C136.792 927.578 137.224 926.554 137.224 924.858C137.224 923.162 136.792 922.138 135.768 922.138ZM140.958 929.114V920.602H143.438V921.866C143.902 921.066 144.702 920.442 145.806 920.442C146.83 920.442 147.71 920.97 148.03 922.042C148.542 921.082 149.422 920.442 150.542 920.442C151.854 920.442 152.894 921.274 152.894 922.986V929.114H150.43V923.674C150.43 922.794 150.062 922.394 149.422 922.394C148.654 922.394 148.174 923.002 148.174 923.866V929.114H145.694V923.674C145.694 922.794 145.326 922.394 144.686 922.394C143.918 922.394 143.438 923.002 143.438 923.866V929.114H140.958ZM154.882 925.226L154.322 917.274H156.914L156.338 925.226H154.882ZM154.242 929.114V926.426H156.978V929.114H154.242ZM160.985 929.114V917.274H166.201C168.377 917.274 169.689 918.346 169.689 920.09C169.689 921.242 169.033 922.202 168.009 922.634C169.529 923.114 170.345 924.154 170.345 925.626C170.345 927.658 168.921 929.114 166.377 929.114H160.985ZM165.881 919.258H163.401V921.866H165.881C166.889 921.866 167.321 921.274 167.321 920.554C167.321 919.834 166.889 919.258 165.881 919.258ZM166.121 923.738H163.401V927.114H166.121C167.385 927.114 167.929 926.394 167.929 925.418C167.929 924.474 167.385 923.738 166.121 923.738ZM175.106 920.442C177.474 920.442 179.074 922.218 179.074 924.858C179.074 927.498 177.474 929.274 175.106 929.274C172.722 929.274 171.122 927.498 171.122 924.858C171.122 922.218 172.722 920.442 175.106 920.442ZM175.106 922.138C174.066 922.138 173.634 923.162 173.634 924.858C173.634 926.554 174.066 927.578 175.106 927.578C176.13 927.578 176.562 926.554 176.562 924.858C176.562 923.162 176.13 922.138 175.106 922.138ZM183.911 920.442C186.279 920.442 187.879 922.218 187.879 924.858C187.879 927.498 186.279 929.274 183.911 929.274C181.527 929.274 179.927 927.498 179.927 924.858C179.927 922.218 181.527 920.442 183.911 920.442ZM183.911 922.138C182.871 922.138 182.439 923.162 182.439 924.858C182.439 926.554 182.871 927.578 183.911 927.578C184.935 927.578 185.367 926.554 185.367 924.858C185.367 923.162 184.935 922.138 183.911 922.138ZM189.101 917.274H191.581V923.882L194.253 920.602H196.749L194.109 923.738L196.973 929.114H194.269L192.397 925.61L191.581 926.602V929.114H189.101V917.274ZM200.226 919.626V917.45H202.706V919.626H200.226ZM200.226 929.114V920.602H202.706V929.114H200.226ZM204.68 927.034V922.426H203.56V920.602H204.68V918.794L207.144 917.674V920.602H208.776V922.426H207.144V926.682C207.144 927.162 207.384 927.434 208.008 927.434C208.184 927.434 208.456 927.418 208.776 927.338V929.098C208.28 929.21 207.768 929.274 207.32 929.274C205.56 929.274 204.68 928.426 204.68 927.034ZM219.958 929.082C219.558 929.178 219.19 929.226 218.886 929.226C217.894 929.226 217.302 928.762 217.062 928.122C216.55 928.89 215.686 929.274 214.694 929.274C213.11 929.274 211.974 928.298 211.974 926.682C211.974 924.954 213.19 924.186 215.19 923.914C216.422 923.738 216.87 923.466 216.87 922.922C216.87 922.41 216.47 922.074 215.734 922.074C214.934 922.074 214.294 922.522 214.214 923.402L212.15 922.89C212.63 921.434 213.846 920.442 215.862 920.442C217.798 920.442 219.206 921.354 219.206 923.162V926.954C219.206 927.354 219.446 927.466 219.958 927.37V929.082ZM216.902 926.266V924.714C216.582 924.97 216.15 925.114 215.67 925.21C214.806 925.402 214.342 925.69 214.342 926.506C214.342 927.242 214.774 927.69 215.494 927.69C216.278 927.69 216.902 927.21 216.902 926.266ZM220.868 929.114V920.602H223.348V921.882C223.812 921.082 224.644 920.442 225.78 920.442C227.108 920.442 228.18 921.274 228.18 922.986V929.114H225.716V923.674C225.716 922.794 225.332 922.394 224.644 922.394C223.844 922.394 223.348 923.002 223.348 923.866V929.114H220.868ZM234.695 929.114V927.914C234.295 928.698 233.495 929.274 232.487 929.274C230.583 929.274 229.351 927.562 229.351 924.858C229.351 922.17 230.583 920.442 232.487 920.442C233.495 920.442 234.295 921.034 234.695 921.818V917.274H237.159V929.114H234.695ZM234.759 924.65C234.759 923.114 234.279 922.186 233.351 922.186C232.327 922.186 231.863 923.258 231.863 924.858C231.863 926.458 232.327 927.53 233.351 927.53C234.279 927.53 234.759 926.618 234.759 925.082V924.65ZM241.682 927.034V922.426H240.562V920.602H241.682V918.794L244.146 917.674V920.602H245.778V922.426H244.146V926.682C244.146 927.162 244.386 927.434 245.01 927.434C245.186 927.434 245.458 927.418 245.778 927.338V929.098C245.282 929.21 244.77 929.274 244.322 929.274C242.562 929.274 241.682 928.426 241.682 927.034ZM254.197 925.306H248.853C248.933 926.89 249.573 927.578 250.533 927.578C251.461 927.578 252.005 926.954 252.245 926.058L254.037 926.938C253.477 928.346 252.197 929.274 250.469 929.274C248.037 929.274 246.469 927.498 246.469 924.858C246.469 922.202 248.053 920.442 250.389 920.442C252.949 920.442 254.197 922.458 254.197 925.05V925.306ZM250.373 922.058C249.493 922.058 248.997 922.714 248.869 923.93H251.893C251.781 922.714 251.237 922.058 250.373 922.058ZM255.362 929.114V917.274H257.842V929.114H255.362ZM259.48 929.114V917.274H261.96V929.114H259.48ZM266.472 927.034V922.426H265.352V920.602H266.472V918.794L268.936 917.674V920.602H270.568V922.426H268.936V926.682C268.936 927.162 269.176 927.434 269.8 927.434C269.976 927.434 270.248 927.418 270.568 927.338V929.098C270.072 929.21 269.56 929.274 269.112 929.274C267.352 929.274 266.472 928.426 266.472 927.034ZM271.723 929.114V917.274H274.203V921.882C274.667 921.082 275.499 920.442 276.635 920.442C277.963 920.442 279.035 921.274 279.035 922.986V929.114H276.571V923.674C276.571 922.794 276.155 922.394 275.483 922.394C274.683 922.394 274.203 923.002 274.203 923.866V929.114H271.723ZM287.933 925.306H282.589C282.669 926.89 283.309 927.578 284.269 927.578C285.197 927.578 285.741 926.954 285.981 926.058L287.773 926.938C287.213 928.346 285.933 929.274 284.205 929.274C281.773 929.274 280.205 927.498 280.205 924.858C280.205 922.202 281.789 920.442 284.125 920.442C286.685 920.442 287.933 922.458 287.933 925.05V925.306ZM284.109 922.058C283.229 922.058 282.733 922.714 282.605 923.93H285.629C285.517 922.714 284.973 922.058 284.109 922.058ZM289.098 929.114V920.602H291.578V921.866C292.042 921.066 292.842 920.442 293.946 920.442C294.97 920.442 295.85 920.97 296.17 922.042C296.682 921.082 297.562 920.442 298.682 920.442C299.994 920.442 301.034 921.274 301.034 922.986V929.114H298.57V923.674C298.57 922.794 298.202 922.394 297.562 922.394C296.794 922.394 296.314 923.002 296.314 923.866V929.114H293.834V923.674C293.834 922.794 293.466 922.394 292.826 922.394C292.058 922.394 291.578 923.002 291.578 923.866V929.114H289.098ZM306.729 920.602L308.329 926.346L309.929 920.602H312.233L309.353 929.594C308.873 931.098 308.009 932.154 306.377 932.154C306.009 932.154 305.545 932.106 305.081 931.946V930.09C305.401 930.234 305.689 930.282 305.913 930.282C306.473 930.282 306.745 929.962 306.921 929.45L307.001 929.162L304.265 920.602H306.729ZM316.394 920.442C318.762 920.442 320.362 922.218 320.362 924.858C320.362 927.498 318.762 929.274 316.394 929.274C314.01 929.274 312.41 927.498 312.41 924.858C312.41 922.218 314.01 920.442 316.394 920.442ZM316.394 922.138C315.354 922.138 314.922 923.162 314.922 924.858C314.922 926.554 315.354 927.578 316.394 927.578C317.418 927.578 317.85 926.554 317.85 924.858C317.85 923.162 317.418 922.138 316.394 922.138ZM328.848 920.602V929.114H326.384V927.85C325.92 928.634 325.072 929.274 323.936 929.274C322.608 929.274 321.536 928.442 321.536 926.73V920.602H324V926.042C324 926.922 324.4 927.322 325.072 927.322C325.888 927.322 326.384 926.714 326.384 925.85V920.602H328.848ZM330.483 929.114V920.602H332.963V922.362C333.267 921.466 333.987 920.538 335.059 920.538C335.203 920.538 335.395 920.554 335.587 920.602V923.002C335.267 922.874 334.931 922.826 334.643 922.826C333.603 922.826 332.963 923.578 332.963 924.874V929.114H330.483ZM126.774 947.034V942.426H125.654V940.602H126.774V938.794L129.238 937.674V940.602H130.87V942.426H129.238V946.682C129.238 947.162 129.478 947.434 130.102 947.434C130.278 947.434 130.55 947.418 130.87 947.338V949.098C130.374 949.21 129.862 949.274 129.414 949.274C127.654 949.274 126.774 948.426 126.774 947.034ZM139.29 945.306H133.946C134.026 946.89 134.666 947.578 135.626 947.578C136.554 947.578 137.098 946.954 137.338 946.058L139.13 946.938C138.57 948.346 137.29 949.274 135.562 949.274C133.13 949.274 131.562 947.498 131.562 944.858C131.562 942.202 133.146 940.442 135.482 940.442C138.042 940.442 139.29 942.458 139.29 945.05V945.306ZM135.466 942.058C134.586 942.058 134.09 942.714 133.962 943.93H136.986C136.874 942.714 136.33 942.058 135.466 942.058ZM147.943 949.082C147.543 949.178 147.175 949.226 146.871 949.226C145.879 949.226 145.287 948.762 145.047 948.122C144.535 948.89 143.671 949.274 142.679 949.274C141.095 949.274 139.959 948.298 139.959 946.682C139.959 944.954 141.175 944.186 143.175 943.914C144.407 943.738 144.855 943.466 144.855 942.922C144.855 942.41 144.455 942.074 143.719 942.074C142.919 942.074 142.279 942.522 142.199 943.402L140.135 942.89C140.615 941.434 141.831 940.442 143.847 940.442C145.783 940.442 147.191 941.354 147.191 943.162V946.954C147.191 947.354 147.431 947.466 147.943 947.37V949.082ZM144.887 946.266V944.714C144.567 944.97 144.135 945.114 143.655 945.21C142.791 945.402 142.327 945.69 142.327 946.506C142.327 947.242 142.759 947.69 143.479 947.69C144.263 947.69 144.887 947.21 144.887 946.266ZM148.853 949.114V940.602H151.333V941.866C151.797 941.066 152.597 940.442 153.701 940.442C154.725 940.442 155.605 940.97 155.925 942.042C156.437 941.082 157.317 940.442 158.437 940.442C159.749 940.442 160.789 941.274 160.789 942.986V949.114H158.325V943.674C158.325 942.794 157.957 942.394 157.317 942.394C156.549 942.394 156.069 943.002 156.069 943.866V949.114H153.589V943.674C153.589 942.794 153.221 942.394 152.581 942.394C151.813 942.394 151.333 943.002 151.333 943.866V949.114H148.853ZM164.916 939.626V937.45H167.396V939.626H164.916ZM164.916 949.114V940.602H167.396V949.114H164.916ZM172.01 949.274C169.978 949.274 168.682 948.378 168.33 946.81L170.266 946.106C170.458 947.066 171.162 947.658 172.074 947.658C172.842 947.658 173.322 947.226 173.322 946.714C173.322 946.042 172.538 945.866 171.626 945.658C170.314 945.354 168.746 944.97 168.746 943.114C168.746 941.498 170.106 940.442 172.106 940.442C173.962 940.442 175.13 941.386 175.386 942.618L173.642 943.306C173.466 942.474 172.842 942.042 172.042 942.042C171.29 942.042 170.97 942.41 170.97 942.842C170.97 943.498 171.706 943.674 172.602 943.866C173.93 944.154 175.546 944.506 175.546 946.458C175.546 948.41 173.898 949.274 172.01 949.274ZM179.206 949.114V937.274H181.686V949.114H179.206ZM186.892 940.442C189.26 940.442 190.86 942.218 190.86 944.858C190.86 947.498 189.26 949.274 186.892 949.274C184.508 949.274 182.908 947.498 182.908 944.858C182.908 942.218 184.508 940.442 186.892 940.442ZM186.892 942.138C185.852 942.138 185.42 943.162 185.42 944.858C185.42 946.554 185.852 947.578 186.892 947.578C187.916 947.578 188.348 946.554 188.348 944.858C188.348 943.162 187.916 942.138 186.892 942.138ZM195.697 940.442C198.065 940.442 199.665 942.218 199.665 944.858C199.665 947.498 198.065 949.274 195.697 949.274C193.313 949.274 191.713 947.498 191.713 944.858C191.713 942.218 193.313 940.442 195.697 940.442ZM195.697 942.138C194.657 942.138 194.225 943.162 194.225 944.858C194.225 946.554 194.657 947.578 195.697 947.578C196.721 947.578 197.153 946.554 197.153 944.858C197.153 943.162 196.721 942.138 195.697 942.138ZM200.887 937.274H203.367V943.882L206.039 940.602H208.535L205.895 943.738L208.759 949.114H206.055L204.183 945.61L203.367 946.602V949.114H200.887V937.274ZM209.473 939.626V937.45H211.953V939.626H209.473ZM209.473 949.114V940.602H211.953V949.114H209.473ZM213.591 949.114V940.602H216.071V941.882C216.535 941.082 217.367 940.442 218.503 940.442C219.831 940.442 220.903 941.274 220.903 942.986V949.114H218.439V943.674C218.439 942.794 218.055 942.394 217.367 942.394C216.567 942.394 216.071 943.002 216.071 943.866V949.114H213.591ZM224.218 949.178C224.442 950.01 225.018 950.49 225.898 950.49C227.05 950.49 227.466 949.898 227.466 948.586V947.498C227.05 948.282 226.282 948.858 225.242 948.858C223.37 948.858 222.074 947.242 222.074 944.65C222.074 942.09 223.37 940.442 225.242 940.442C226.282 940.442 227.05 941.018 227.466 941.786V940.602H229.93V948.458C229.93 950.666 228.65 952.138 225.914 952.138C223.93 952.138 222.762 951.306 222.314 950.074L224.218 949.178ZM227.53 944.426C227.53 943.114 227.05 942.17 226.09 942.17C225.082 942.17 224.554 943.29 224.554 944.65C224.554 946.01 225.082 947.13 226.09 947.13C227.05 947.13 227.53 946.186 227.53 944.874V944.426ZM233.331 942.426V940.602H234.451V939.626C234.451 937.962 235.475 937.114 237.203 937.114C237.619 937.114 238.067 937.162 238.467 937.274V939.018C238.243 938.954 238.019 938.922 237.843 938.922C237.219 938.922 236.915 939.242 236.915 939.77V940.602H238.467V942.426H236.915V949.114H234.451V942.426H233.331ZM242.832 940.442C245.2 940.442 246.8 942.218 246.8 944.858C246.8 947.498 245.2 949.274 242.832 949.274C240.448 949.274 238.848 947.498 238.848 944.858C238.848 942.218 240.448 940.442 242.832 940.442ZM242.832 942.138C241.792 942.138 241.36 943.162 241.36 944.858C241.36 946.554 241.792 947.578 242.832 947.578C243.856 947.578 244.288 946.554 244.288 944.858C244.288 943.162 243.856 942.138 242.832 942.138ZM248.022 949.114V940.602H250.502V942.362C250.806 941.466 251.526 940.538 252.598 940.538C252.742 940.538 252.934 940.554 253.126 940.602V943.002C252.806 942.874 252.47 942.826 252.182 942.826C251.142 942.826 250.502 943.578 250.502 944.874V949.114H248.022ZM258.423 940.602H260.679L261.959 946.298L263.335 940.602H265.591L263.335 949.114H260.839L259.543 943.354L258.231 949.114H255.703L253.463 940.602H255.783L257.143 946.298L258.423 940.602ZM273.745 949.082C273.345 949.178 272.977 949.226 272.673 949.226C271.681 949.226 271.089 948.762 270.849 948.122C270.337 948.89 269.473 949.274 268.481 949.274C266.897 949.274 265.761 948.298 265.761 946.682C265.761 944.954 266.977 944.186 268.977 943.914C270.209 943.738 270.657 943.466 270.657 942.922C270.657 942.41 270.257 942.074 269.521 942.074C268.721 942.074 268.081 942.522 268.001 943.402L265.937 942.89C266.417 941.434 267.633 940.442 269.649 940.442C271.585 940.442 272.993 941.354 272.993 943.162V946.954C272.993 947.354 273.233 947.466 273.745 947.37V949.082ZM270.689 946.266V944.714C270.369 944.97 269.937 945.114 269.457 945.21C268.593 945.402 268.129 945.69 268.129 946.506C268.129 947.242 268.561 947.69 269.281 947.69C270.065 947.69 270.689 947.21 270.689 946.266ZM274.656 949.114V940.602H277.136V942.362C277.44 941.466 278.16 940.538 279.232 940.538C279.376 940.538 279.568 940.554 279.76 940.602V943.002C279.44 942.874 279.104 942.826 278.816 942.826C277.776 942.826 277.136 943.578 277.136 944.874V949.114H274.656ZM285.67 949.114V947.914C285.27 948.698 284.47 949.274 283.462 949.274C281.558 949.274 280.326 947.562 280.326 944.858C280.326 942.17 281.558 940.442 283.462 940.442C284.47 940.442 285.27 941.034 285.67 941.818V937.274H288.134V949.114H285.67ZM285.734 944.65C285.734 943.114 285.254 942.186 284.326 942.186C283.302 942.186 282.838 943.258 282.838 944.858C282.838 946.458 283.302 947.53 284.326 947.53C285.254 947.53 285.734 946.618 285.734 945.082V944.65ZM292.657 947.034V942.426H291.537V940.602H292.657V938.794L295.121 937.674V940.602H296.753V942.426H295.121V946.682C295.121 947.162 295.361 947.434 295.985 947.434C296.161 947.434 296.433 947.418 296.753 947.338V949.098C296.257 949.21 295.745 949.274 295.297 949.274C293.537 949.274 292.657 948.426 292.657 947.034ZM301.428 940.442C303.796 940.442 305.396 942.218 305.396 944.858C305.396 947.498 303.796 949.274 301.428 949.274C299.044 949.274 297.444 947.498 297.444 944.858C297.444 942.218 299.044 940.442 301.428 940.442ZM301.428 942.138C300.388 942.138 299.956 943.162 299.956 944.858C299.956 946.554 300.388 947.578 301.428 947.578C302.452 947.578 302.884 946.554 302.884 944.858C302.884 943.162 302.452 942.138 301.428 942.138ZM309.158 939.626V937.45H311.638V939.626H309.158ZM309.158 949.114V940.602H311.638V949.114H309.158ZM313.611 947.034V942.426H312.491V940.602H313.611V938.794L316.075 937.674V940.602H317.707V942.426H316.075V946.682C316.075 947.162 316.315 947.434 316.939 947.434C317.115 947.434 317.387 947.418 317.707 947.338V949.098C317.211 949.21 316.699 949.274 316.251 949.274C314.491 949.274 313.611 948.426 313.611 947.034ZM318.589 949.114V946.426H321.325V949.114H318.589Z"
        fill="#151515" class="el-5 mobile-hide"></path>
    <path d="M224 884.114L238 912.114L224 904.114L210 912.114L224 884.114Z" fill="#C238DA"
        class="el-5 mobile-hide"></path>
    <rect width="274.457" height="36.2286" transform="translate(87 664)" fill="#C238DA" class="el-4 mobile-hide"
        ></rect>
    <path
        d="M103.897 683.194C103.897 679.434 106.025 677.114 109.161 677.114C111.401 677.114 113.161 678.33 113.657 680.442L111.401 681.482C111.097 680.026 110.313 679.258 109.161 679.258C107.577 679.258 106.585 680.618 106.585 683.194C106.585 685.77 107.609 687.13 109.161 687.13C110.505 687.13 111.321 686.074 111.497 684.426L113.785 685.434C113.321 687.786 111.561 689.274 109.161 689.274C106.025 689.274 103.897 686.954 103.897 683.194ZM122.101 680.602V689.114H119.637V687.85C119.173 688.634 118.325 689.274 117.189 689.274C115.861 689.274 114.789 688.442 114.789 686.73V680.602H117.253V686.042C117.253 686.922 117.653 687.322 118.325 687.322C119.141 687.322 119.637 686.714 119.637 685.85V680.602H122.101ZM126.711 689.274C124.679 689.274 123.383 688.378 123.031 686.81L124.967 686.106C125.159 687.066 125.863 687.658 126.775 687.658C127.543 687.658 128.023 687.226 128.023 686.714C128.023 686.042 127.239 685.866 126.327 685.658C125.015 685.354 123.447 684.97 123.447 683.114C123.447 681.498 124.807 680.442 126.807 680.442C128.663 680.442 129.831 681.386 130.087 682.618L128.343 683.306C128.167 682.474 127.543 682.042 126.743 682.042C125.991 682.042 125.671 682.41 125.671 682.842C125.671 683.498 126.407 683.674 127.303 683.866C128.631 684.154 130.247 684.506 130.247 686.458C130.247 688.41 128.599 689.274 126.711 689.274ZM131.673 687.034V682.426H130.553V680.602H131.673V678.794L134.137 677.674V680.602H135.769V682.426H134.137V686.682C134.137 687.162 134.377 687.434 135.001 687.434C135.177 687.434 135.449 687.418 135.769 687.338V689.098C135.273 689.21 134.761 689.274 134.313 689.274C132.553 689.274 131.673 688.426 131.673 687.034ZM140.445 680.442C142.813 680.442 144.413 682.218 144.413 684.858C144.413 687.498 142.813 689.274 140.445 689.274C138.061 689.274 136.461 687.498 136.461 684.858C136.461 682.218 138.061 680.442 140.445 680.442ZM140.445 682.138C139.405 682.138 138.973 683.162 138.973 684.858C138.973 686.554 139.405 687.578 140.445 687.578C141.469 687.578 141.901 686.554 141.901 684.858C141.901 683.162 141.469 682.138 140.445 682.138ZM145.635 689.114V680.602H148.115V681.866C148.579 681.066 149.379 680.442 150.483 680.442C151.507 680.442 152.387 680.97 152.707 682.042C153.219 681.082 154.099 680.442 155.219 680.442C156.531 680.442 157.571 681.274 157.571 682.986V689.114H155.107V683.674C155.107 682.794 154.739 682.394 154.099 682.394C153.331 682.394 152.851 683.002 152.851 683.866V689.114H150.371V683.674C150.371 682.794 150.003 682.394 149.363 682.394C148.595 682.394 148.115 683.002 148.115 683.866V689.114H145.635ZM166.471 685.306H161.127C161.207 686.89 161.847 687.578 162.807 687.578C163.735 687.578 164.279 686.954 164.519 686.058L166.311 686.938C165.751 688.346 164.471 689.274 162.743 689.274C160.311 689.274 158.743 687.498 158.743 684.858C158.743 682.202 160.327 680.442 162.663 680.442C165.223 680.442 166.471 682.458 166.471 685.05V685.306ZM162.647 682.058C161.767 682.058 161.271 682.714 161.143 683.93H164.167C164.055 682.714 163.511 682.058 162.647 682.058ZM167.635 689.114V680.602H170.115V682.362C170.419 681.466 171.139 680.538 172.211 680.538C172.355 680.538 172.547 680.554 172.739 680.602V683.002C172.419 682.874 172.083 682.826 171.795 682.826C170.755 682.826 170.115 683.578 170.115 684.874V689.114H167.635ZM178.819 691.994H176.339V680.602H178.819V681.818C179.219 681.034 180.019 680.442 181.027 680.442C182.931 680.442 184.163 682.17 184.163 684.858C184.163 687.562 182.931 689.274 181.027 689.274C180.019 689.274 179.219 688.698 178.819 687.914V691.994ZM178.739 684.65V685.082C178.739 686.618 179.219 687.53 180.163 687.53C181.171 687.53 181.651 686.458 181.651 684.858C181.651 683.258 181.171 682.186 180.163 682.186C179.219 682.186 178.739 683.114 178.739 684.65ZM185.379 689.114V680.602H187.859V682.362C188.163 681.466 188.883 680.538 189.955 680.538C190.099 680.538 190.291 680.554 190.483 680.602V683.002C190.163 682.874 189.827 682.826 189.539 682.826C188.499 682.826 187.859 683.578 187.859 684.874V689.114H185.379ZM195.002 680.442C197.37 680.442 198.97 682.218 198.97 684.858C198.97 687.498 197.37 689.274 195.002 689.274C192.618 689.274 191.018 687.498 191.018 684.858C191.018 682.218 192.618 680.442 195.002 680.442ZM195.002 682.138C193.962 682.138 193.53 683.162 193.53 684.858C193.53 686.554 193.962 687.578 195.002 687.578C196.026 687.578 196.458 686.554 196.458 684.858C196.458 683.162 196.026 682.138 195.002 682.138ZM201.779 689.114L199.171 680.602H201.635L203.235 686.538L204.819 680.602H207.123L204.515 689.114H201.779ZM207.856 679.626V677.45H210.336V679.626H207.856ZM207.856 689.114V680.602H210.336V689.114H207.856ZM216.902 689.114V687.914C216.502 688.698 215.702 689.274 214.694 689.274C212.79 689.274 211.558 687.562 211.558 684.858C211.558 682.17 212.79 680.442 214.694 680.442C215.702 680.442 216.502 681.034 216.902 681.818V677.274H219.366V689.114H216.902ZM216.966 684.65C216.966 683.114 216.486 682.186 215.558 682.186C214.534 682.186 214.07 683.258 214.07 684.858C214.07 686.458 214.534 687.53 215.558 687.53C216.486 687.53 216.966 686.618 216.966 685.082V684.65ZM228.325 685.306H222.981C223.061 686.89 223.701 687.578 224.661 687.578C225.589 687.578 226.133 686.954 226.373 686.058L228.165 686.938C227.605 688.346 226.325 689.274 224.597 689.274C222.165 689.274 220.597 687.498 220.597 684.858C220.597 682.202 222.181 680.442 224.517 680.442C227.077 680.442 228.325 682.458 228.325 685.05V685.306ZM224.501 682.058C223.621 682.058 223.125 682.714 222.997 683.93H226.021C225.909 682.714 225.365 682.058 224.501 682.058ZM232.419 689.274C230.387 689.274 229.091 688.378 228.739 686.81L230.675 686.106C230.867 687.066 231.571 687.658 232.483 687.658C233.251 687.658 233.731 687.226 233.731 686.714C233.731 686.042 232.947 685.866 232.035 685.658C230.723 685.354 229.155 684.97 229.155 683.114C229.155 681.498 230.515 680.442 232.515 680.442C234.371 680.442 235.539 681.386 235.795 682.618L234.051 683.306C233.875 682.474 233.251 682.042 232.451 682.042C231.699 682.042 231.379 682.41 231.379 682.842C231.379 683.498 232.115 683.674 233.011 683.866C234.339 684.154 235.955 684.506 235.955 686.458C235.955 688.41 234.307 689.274 232.419 689.274ZM239.615 689.114V680.602H242.095V681.882C242.559 681.082 243.391 680.442 244.527 680.442C245.855 680.442 246.927 681.274 246.927 682.986V689.114H244.463V683.674C244.463 682.794 244.079 682.394 243.391 682.394C242.591 682.394 242.095 683.002 242.095 683.866V689.114H239.615ZM256.002 689.082C255.602 689.178 255.234 689.226 254.93 689.226C253.938 689.226 253.346 688.762 253.106 688.122C252.594 688.89 251.73 689.274 250.738 689.274C249.154 689.274 248.018 688.298 248.018 686.682C248.018 684.954 249.234 684.186 251.234 683.914C252.466 683.738 252.914 683.466 252.914 682.922C252.914 682.41 252.514 682.074 251.778 682.074C250.978 682.074 250.338 682.522 250.258 683.402L248.194 682.89C248.674 681.434 249.89 680.442 251.906 680.442C253.842 680.442 255.25 681.354 255.25 683.162V686.954C255.25 687.354 255.49 687.466 256.002 687.37V689.082ZM252.946 686.266V684.714C252.626 684.97 252.194 685.114 251.714 685.21C250.85 685.402 250.386 685.69 250.386 686.506C250.386 687.242 250.818 687.69 251.538 687.69C252.322 687.69 252.946 687.21 252.946 686.266ZM256.913 689.114V680.602H259.393V681.866C259.857 681.066 260.657 680.442 261.761 680.442C262.785 680.442 263.665 680.97 263.985 682.042C264.497 681.082 265.377 680.442 266.497 680.442C267.809 680.442 268.849 681.274 268.849 682.986V689.114H266.385V683.674C266.385 682.794 266.017 682.394 265.377 682.394C264.609 682.394 264.129 683.002 264.129 683.866V689.114H261.649V683.674C261.649 682.794 261.281 682.394 260.641 682.394C259.873 682.394 259.393 683.002 259.393 683.866V689.114H256.913ZM277.749 685.306H272.405C272.485 686.89 273.125 687.578 274.085 687.578C275.013 687.578 275.557 686.954 275.797 686.058L277.589 686.938C277.029 688.346 275.749 689.274 274.021 689.274C271.589 689.274 270.021 687.498 270.021 684.858C270.021 682.202 271.605 680.442 273.941 680.442C276.501 680.442 277.749 682.458 277.749 685.05V685.306ZM273.925 682.058C273.045 682.058 272.549 682.714 272.421 683.93H275.445C275.333 682.714 274.789 682.058 273.925 682.058ZM288.941 689.082C288.541 689.178 288.173 689.226 287.869 689.226C286.877 689.226 286.285 688.762 286.045 688.122C285.533 688.89 284.669 689.274 283.677 689.274C282.093 689.274 280.957 688.298 280.957 686.682C280.957 684.954 282.173 684.186 284.173 683.914C285.405 683.738 285.853 683.466 285.853 682.922C285.853 682.41 285.453 682.074 284.717 682.074C283.917 682.074 283.277 682.522 283.197 683.402L281.133 682.89C281.613 681.434 282.829 680.442 284.845 680.442C286.781 680.442 288.189 681.354 288.189 683.162V686.954C288.189 687.354 288.429 687.466 288.941 687.37V689.082ZM285.885 686.266V684.714C285.565 684.97 285.133 685.114 284.653 685.21C283.789 685.402 283.325 685.69 283.325 686.506C283.325 687.242 283.757 687.69 284.477 687.69C285.261 687.69 285.885 687.21 285.885 686.266ZM289.852 689.114V680.602H292.332V681.882C292.796 681.082 293.628 680.442 294.764 680.442C296.092 680.442 297.164 681.274 297.164 682.986V689.114H294.7V683.674C294.7 682.794 294.316 682.394 293.628 682.394C292.828 682.394 292.332 683.002 292.332 683.866V689.114H289.852ZM303.678 689.114V687.914C303.278 688.698 302.478 689.274 301.47 689.274C299.566 689.274 298.334 687.562 298.334 684.858C298.334 682.17 299.566 680.442 301.47 680.442C302.478 680.442 303.278 681.034 303.678 681.818V677.274H306.142V689.114H303.678ZM303.742 684.65C303.742 683.114 303.262 682.186 302.334 682.186C301.31 682.186 300.846 683.258 300.846 684.858C300.846 686.458 301.31 687.53 302.334 687.53C303.262 687.53 303.742 686.618 303.742 685.082V684.65ZM310.665 687.034V682.426H309.545V680.602H310.665V678.794L313.129 677.674V680.602H314.761V682.426H313.129V686.682C313.129 687.162 313.369 687.434 313.993 687.434C314.169 687.434 314.441 687.418 314.761 687.338V689.098C314.265 689.21 313.753 689.274 313.305 689.274C311.545 689.274 310.665 688.426 310.665 687.034ZM315.915 679.626V677.45H318.395V679.626H315.915ZM315.915 689.114V680.602H318.395V689.114H315.915ZM320.033 689.114V680.602H322.513V681.866C322.977 681.066 323.777 680.442 324.881 680.442C325.905 680.442 326.785 680.97 327.105 682.042C327.617 681.082 328.497 680.442 329.617 680.442C330.929 680.442 331.969 681.274 331.969 682.986V689.114H329.505V683.674C329.505 682.794 329.137 682.394 328.497 682.394C327.729 682.394 327.249 683.002 327.249 683.866V689.114H324.769V683.674C324.769 682.794 324.401 682.394 323.761 682.394C322.993 682.394 322.513 683.002 322.513 683.866V689.114H320.033ZM340.869 685.306H335.525C335.605 686.89 336.245 687.578 337.205 687.578C338.133 687.578 338.677 686.954 338.917 686.058L340.709 686.938C340.149 688.346 338.869 689.274 337.141 689.274C334.709 689.274 333.141 687.498 333.141 684.858C333.141 682.202 334.725 680.442 337.061 680.442C339.621 680.442 340.869 682.458 340.869 685.05V685.306ZM337.045 682.058C336.165 682.058 335.669 682.714 335.541 683.93H338.565C338.453 682.714 337.909 682.058 337.045 682.058ZM341.73 689.114V686.426H344.466V689.114H341.73Z"
        fill="#151515" class="el-4 mobile-hide"></path>
    <path d="M224 644.114L238 672.114L224 664.114L210 672.114L224 644.114Z" fill="#C238DA"
        class="el-4 mobile-hide"></path>
    <rect width="219.457" height="56.2286" transform="translate(114 384)" fill="#C238DA"
        class="el-3 mobile-hide"></rect>
    <path
        d="M141.468 409.114L140.668 406.698H136.076L135.276 409.114H132.828L136.988 397.274H139.884L144.028 409.114H141.468ZM136.78 404.602H139.964L138.38 399.834L136.78 404.602ZM147.849 409.274C145.817 409.274 144.521 408.378 144.169 406.81L146.105 406.106C146.297 407.066 147.001 407.658 147.913 407.658C148.681 407.658 149.161 407.226 149.161 406.714C149.161 406.042 148.377 405.866 147.465 405.658C146.153 405.354 144.585 404.97 144.585 403.114C144.585 401.498 145.945 400.442 147.945 400.442C149.801 400.442 150.969 401.386 151.225 402.618L149.481 403.306C149.305 402.474 148.681 402.042 147.881 402.042C147.129 402.042 146.809 402.41 146.809 402.842C146.809 403.498 147.545 403.674 148.441 403.866C149.769 404.154 151.385 404.506 151.385 406.458C151.385 408.41 149.737 409.274 147.849 409.274ZM152.506 397.274H154.986V403.882L157.658 400.602H160.154L157.514 403.738L160.378 409.114H157.674L155.802 405.61L154.986 406.602V409.114H152.506V397.274ZM162.847 402.426V400.602H163.967V399.626C163.967 397.962 164.991 397.114 166.719 397.114C167.135 397.114 167.583 397.162 167.983 397.274V399.018C167.759 398.954 167.535 398.922 167.359 398.922C166.735 398.922 166.431 399.242 166.431 399.77V400.602H167.983V402.426H166.431V409.114H163.967V402.426H162.847ZM172.348 400.442C174.716 400.442 176.316 402.218 176.316 404.858C176.316 407.498 174.716 409.274 172.348 409.274C169.964 409.274 168.364 407.498 168.364 404.858C168.364 402.218 169.964 400.442 172.348 400.442ZM172.348 402.138C171.308 402.138 170.876 403.162 170.876 404.858C170.876 406.554 171.308 407.578 172.348 407.578C173.372 407.578 173.804 406.554 173.804 404.858C173.804 403.162 173.372 402.138 172.348 402.138ZM177.538 409.114V400.602H180.018V402.362C180.322 401.466 181.042 400.538 182.114 400.538C182.258 400.538 182.45 400.554 182.642 400.602V403.002C182.322 402.874 181.986 402.826 181.698 402.826C180.658 402.826 180.018 403.578 180.018 404.874V409.114H177.538ZM186.578 407.034V402.426H185.458V400.602H186.578V398.794L189.042 397.674V400.602H190.674V402.426H189.042V406.682C189.042 407.162 189.282 407.434 189.906 407.434C190.082 407.434 190.354 407.418 190.674 407.338V409.098C190.178 409.21 189.666 409.274 189.218 409.274C187.458 409.274 186.578 408.426 186.578 407.034ZM191.828 409.114V397.274H194.308V401.882C194.772 401.082 195.604 400.442 196.74 400.442C198.068 400.442 199.14 401.274 199.14 402.986V409.114H196.676V403.674C196.676 402.794 196.26 402.394 195.588 402.394C194.788 402.394 194.308 403.002 194.308 403.866V409.114H191.828ZM208.039 405.306H202.695C202.775 406.89 203.415 407.578 204.375 407.578C205.303 407.578 205.847 406.954 206.087 406.058L207.879 406.938C207.319 408.346 206.039 409.274 204.311 409.274C201.879 409.274 200.311 407.498 200.311 404.858C200.311 402.202 201.895 400.442 204.231 400.442C206.791 400.442 208.039 402.458 208.039 405.05V405.306ZM204.215 402.058C203.335 402.058 202.839 402.714 202.711 403.93H205.735C205.623 402.714 205.079 402.058 204.215 402.058ZM209.204 399.626V397.45H211.684V399.626H209.204ZM209.204 409.114V400.602H211.684V409.114H209.204ZM213.321 409.114V400.602H215.801V402.362C216.105 401.466 216.825 400.538 217.897 400.538C218.041 400.538 218.233 400.554 218.425 400.602V403.002C218.105 402.874 217.769 402.826 217.481 402.826C216.441 402.826 215.801 403.578 215.801 404.874V409.114H213.321ZM222.025 409.114V400.602H224.505V401.882C224.969 401.082 225.801 400.442 226.937 400.442C228.265 400.442 229.337 401.274 229.337 402.986V409.114H226.873V403.674C226.873 402.794 226.489 402.394 225.801 402.394C225.001 402.394 224.505 403.002 224.505 403.866V409.114H222.025ZM238.412 409.082C238.012 409.178 237.644 409.226 237.34 409.226C236.348 409.226 235.756 408.762 235.516 408.122C235.004 408.89 234.14 409.274 233.148 409.274C231.564 409.274 230.428 408.298 230.428 406.682C230.428 404.954 231.644 404.186 233.644 403.914C234.876 403.738 235.324 403.466 235.324 402.922C235.324 402.41 234.924 402.074 234.188 402.074C233.388 402.074 232.748 402.522 232.668 403.402L230.604 402.89C231.084 401.434 232.3 400.442 234.316 400.442C236.252 400.442 237.66 401.354 237.66 403.162V406.954C237.66 407.354 237.9 407.466 238.412 407.37V409.082ZM235.356 406.266V404.714C235.036 404.97 234.604 405.114 234.124 405.21C233.26 405.402 232.796 405.69 232.796 406.506C232.796 407.242 233.228 407.69 233.948 407.69C234.732 407.69 235.356 407.21 235.356 406.266ZM239.323 409.114V400.602H241.803V401.866C242.267 401.066 243.067 400.442 244.171 400.442C245.195 400.442 246.075 400.97 246.395 402.042C246.907 401.082 247.787 400.442 248.907 400.442C250.219 400.442 251.259 401.274 251.259 402.986V409.114H248.795V403.674C248.795 402.794 248.427 402.394 247.787 402.394C247.019 402.394 246.539 403.002 246.539 403.866V409.114H244.059V403.674C244.059 402.794 243.691 402.394 243.051 402.394C242.283 402.394 241.803 403.002 241.803 403.866V409.114H239.323ZM260.158 405.306H254.814C254.894 406.89 255.534 407.578 256.494 407.578C257.422 407.578 257.966 406.954 258.206 406.058L259.998 406.938C259.438 408.346 258.158 409.274 256.43 409.274C253.998 409.274 252.43 407.498 252.43 404.858C252.43 402.202 254.014 400.442 256.35 400.442C258.91 400.442 260.158 402.458 260.158 405.05V405.306ZM256.334 402.058C255.454 402.058 254.958 402.714 254.83 403.93H257.854C257.742 402.714 257.198 402.058 256.334 402.058ZM271.351 409.082C270.951 409.178 270.583 409.226 270.279 409.226C269.287 409.226 268.695 408.762 268.455 408.122C267.943 408.89 267.079 409.274 266.087 409.274C264.503 409.274 263.367 408.298 263.367 406.682C263.367 404.954 264.583 404.186 266.583 403.914C267.815 403.738 268.263 403.466 268.263 402.922C268.263 402.41 267.863 402.074 267.127 402.074C266.327 402.074 265.687 402.522 265.607 403.402L263.543 402.89C264.023 401.434 265.239 400.442 267.255 400.442C269.191 400.442 270.599 401.354 270.599 403.162V406.954C270.599 407.354 270.839 407.466 271.351 407.37V409.082ZM268.295 406.266V404.714C267.975 404.97 267.543 405.114 267.063 405.21C266.199 405.402 265.735 405.69 265.735 406.506C265.735 407.242 266.167 407.69 266.887 407.69C267.671 407.69 268.295 407.21 268.295 406.266ZM272.261 409.114V400.602H274.741V401.882C275.205 401.082 276.037 400.442 277.173 400.442C278.501 400.442 279.573 401.274 279.573 402.986V409.114H277.109V403.674C277.109 402.794 276.725 402.394 276.037 402.394C275.237 402.394 274.741 403.002 274.741 403.866V409.114H272.261ZM286.088 409.114V407.914C285.688 408.698 284.888 409.274 283.88 409.274C281.976 409.274 280.744 407.562 280.744 404.858C280.744 402.17 281.976 400.442 283.88 400.442C284.888 400.442 285.688 401.034 286.088 401.818V397.274H288.552V409.114H286.088ZM286.152 404.65C286.152 403.114 285.672 402.186 284.744 402.186C283.72 402.186 283.256 403.258 283.256 404.858C283.256 406.458 283.72 407.53 284.744 407.53C285.672 407.53 286.152 406.618 286.152 405.082V404.65ZM293.075 407.034V402.426H291.955V400.602H293.075V398.794L295.539 397.674V400.602H297.171V402.426H295.539V406.682C295.539 407.162 295.779 407.434 296.403 407.434C296.579 407.434 296.851 407.418 297.171 407.338V409.098C296.675 409.21 296.163 409.274 295.715 409.274C293.955 409.274 293.075 408.426 293.075 407.034ZM298.325 409.114V397.274H300.805V401.882C301.269 401.082 302.101 400.442 303.237 400.442C304.565 400.442 305.637 401.274 305.637 402.986V409.114H303.173V403.674C303.173 402.794 302.757 402.394 302.085 402.394C301.285 402.394 300.805 403.002 300.805 403.866V409.114H298.325ZM314.536 405.306H309.192C309.272 406.89 309.912 407.578 310.872 407.578C311.8 407.578 312.344 406.954 312.584 406.058L314.376 406.938C313.816 408.346 312.536 409.274 310.808 409.274C308.376 409.274 306.808 407.498 306.808 404.858C306.808 402.202 308.392 400.442 310.728 400.442C313.288 400.442 314.536 402.458 314.536 405.05V405.306ZM310.712 402.058C309.832 402.058 309.336 402.714 309.208 403.93H312.232C312.12 402.714 311.576 402.058 310.712 402.058ZM143.248 427.034V422.426H142.128V420.602H143.248V418.794L145.712 417.674V420.602H147.344V422.426H145.712V426.682C145.712 427.162 145.952 427.434 146.576 427.434C146.752 427.434 147.024 427.418 147.344 427.338V429.098C146.848 429.21 146.336 429.274 145.888 429.274C144.128 429.274 143.248 428.426 143.248 427.034ZM148.498 419.626V417.45H150.978V419.626H148.498ZM148.498 429.114V420.602H150.978V429.114H148.498ZM152.615 429.114V420.602H155.095V421.866C155.559 421.066 156.359 420.442 157.463 420.442C158.487 420.442 159.367 420.97 159.687 422.042C160.199 421.082 161.079 420.442 162.199 420.442C163.511 420.442 164.551 421.274 164.551 422.986V429.114H162.087V423.674C162.087 422.794 161.719 422.394 161.079 422.394C160.311 422.394 159.831 423.002 159.831 423.866V429.114H157.351V423.674C157.351 422.794 156.983 422.394 156.343 422.394C155.575 422.394 155.095 423.002 155.095 423.866V429.114H152.615ZM173.451 425.306H168.107C168.187 426.89 168.827 427.578 169.787 427.578C170.715 427.578 171.259 426.954 171.499 426.058L173.291 426.938C172.731 428.346 171.451 429.274 169.723 429.274C167.291 429.274 165.723 427.498 165.723 424.858C165.723 422.202 167.307 420.442 169.643 420.442C172.203 420.442 173.451 422.458 173.451 425.05V425.306ZM169.627 422.058C168.747 422.058 168.251 422.714 168.123 423.93H171.147C171.035 422.714 170.491 422.058 169.627 422.058ZM177.491 427.034V422.426H176.371V420.602H177.491V418.794L179.955 417.674V420.602H181.587V422.426H179.955V426.682C179.955 427.162 180.195 427.434 180.819 427.434C180.995 427.434 181.267 427.418 181.587 427.338V429.098C181.091 429.21 180.579 429.274 180.131 429.274C178.371 429.274 177.491 428.426 177.491 427.034ZM182.742 429.114V417.274H185.222V421.882C185.686 421.082 186.518 420.442 187.654 420.442C188.982 420.442 190.054 421.274 190.054 422.986V429.114H187.59V423.674C187.59 422.794 187.174 422.394 186.502 422.394C185.702 422.394 185.222 423.002 185.222 423.866V429.114H182.742ZM198.952 425.306H193.608C193.688 426.89 194.328 427.578 195.288 427.578C196.216 427.578 196.76 426.954 197 426.058L198.792 426.938C198.232 428.346 196.952 429.274 195.224 429.274C192.792 429.274 191.224 427.498 191.224 424.858C191.224 422.202 192.808 420.442 195.144 420.442C197.704 420.442 198.952 422.458 198.952 425.05V425.306ZM195.128 422.058C194.248 422.058 193.752 422.714 193.624 423.93H196.648C196.536 422.714 195.992 422.058 195.128 422.058ZM201.638 420.602L203.238 426.346L204.838 420.602H207.142L204.262 429.594C203.782 431.098 202.918 432.154 201.286 432.154C200.918 432.154 200.454 432.106 199.99 431.946V430.09C200.31 430.234 200.598 430.282 200.822 430.282C201.382 430.282 201.654 429.962 201.83 429.45L201.91 429.162L199.174 420.602H201.638ZM207.712 419.834V417.274H210.352V419.61C210.352 421.466 209.424 422.33 207.712 422.33V421.05C208.576 421.034 208.912 420.762 208.912 419.978V419.834H207.712ZM216.155 429.114V427.914C215.755 428.698 214.955 429.274 213.947 429.274C212.043 429.274 210.811 427.562 210.811 424.858C210.811 422.17 212.043 420.442 213.947 420.442C214.955 420.442 215.755 421.034 216.155 421.818V417.274H218.619V429.114H216.155ZM216.219 424.65C216.219 423.114 215.739 422.186 214.811 422.186C213.787 422.186 213.323 423.258 213.323 424.858C213.323 426.458 213.787 427.53 214.811 427.53C215.739 427.53 216.219 426.618 216.219 425.082V424.65ZM222.806 429.114V417.274H225.286V429.114H222.806ZM226.924 419.626V417.45H229.404V419.626H226.924ZM226.924 429.114V420.602H229.404V429.114H226.924ZM231.041 417.274H233.521V423.882L236.193 420.602H238.689L236.049 423.738L238.913 429.114H236.209L234.337 425.61L233.521 426.602V429.114H231.041V417.274ZM246.517 425.306H241.173C241.253 426.89 241.893 427.578 242.853 427.578C243.781 427.578 244.325 426.954 244.565 426.058L246.357 426.938C245.797 428.346 244.517 429.274 242.789 429.274C240.357 429.274 238.789 427.498 238.789 424.858C238.789 422.202 240.373 420.442 242.709 420.442C245.269 420.442 246.517 422.458 246.517 425.05V425.306ZM242.693 422.058C241.813 422.058 241.317 422.714 241.189 423.93H244.213C244.101 422.714 243.557 422.058 242.693 422.058ZM250.558 427.034V422.426H249.438V420.602H250.558V418.794L253.022 417.674V420.602H254.654V422.426H253.022V426.682C253.022 427.162 253.262 427.434 253.886 427.434C254.062 427.434 254.334 427.418 254.654 427.338V429.098C254.158 429.21 253.646 429.274 253.198 429.274C251.438 429.274 250.558 428.426 250.558 427.034ZM259.329 420.442C261.697 420.442 263.297 422.218 263.297 424.858C263.297 427.498 261.697 429.274 259.329 429.274C256.945 429.274 255.345 427.498 255.345 424.858C255.345 422.218 256.945 420.442 259.329 420.442ZM259.329 422.138C258.289 422.138 257.857 423.162 257.857 424.858C257.857 426.554 258.289 427.578 259.329 427.578C260.353 427.578 260.785 426.554 260.785 424.858C260.785 423.162 260.353 422.138 259.329 422.138ZM269.539 429.114H267.059V417.274H269.539V421.818C269.939 421.034 270.739 420.442 271.747 420.442C273.651 420.442 274.883 422.17 274.883 424.858C274.883 427.562 273.651 429.274 271.747 429.274C270.739 429.274 269.939 428.698 269.539 427.914V429.114ZM269.459 424.65V425.082C269.459 426.618 269.939 427.53 270.883 427.53C271.891 427.53 272.371 426.458 272.371 424.858C272.371 423.258 271.891 422.186 270.883 422.186C269.939 422.186 269.459 423.114 269.459 424.65ZM279.713 420.442C282.081 420.442 283.681 422.218 283.681 424.858C283.681 427.498 282.081 429.274 279.713 429.274C277.329 429.274 275.729 427.498 275.729 424.858C275.729 422.218 277.329 420.442 279.713 420.442ZM279.713 422.138C278.673 422.138 278.241 423.162 278.241 424.858C278.241 426.554 278.673 427.578 279.713 427.578C280.737 427.578 281.169 426.554 281.169 424.858C281.169 423.162 280.737 422.138 279.713 422.138ZM288.518 420.442C290.886 420.442 292.486 422.218 292.486 424.858C292.486 427.498 290.886 429.274 288.518 429.274C286.134 429.274 284.534 427.498 284.534 424.858C284.534 422.218 286.134 420.442 288.518 420.442ZM288.518 422.138C287.478 422.138 287.046 423.162 287.046 424.858C287.046 426.554 287.478 427.578 288.518 427.578C289.542 427.578 289.974 426.554 289.974 424.858C289.974 423.162 289.542 422.138 288.518 422.138ZM293.708 417.274H296.188V423.882L298.86 420.602H301.356L298.716 423.738L301.58 429.114H298.876L297.004 425.61L296.188 426.602V429.114H293.708V417.274ZM302.115 429.114V426.426H304.851V429.114H302.115Z"
        fill="#151515" class="el-3 mobile-hide"></path>
    <path d="M224 364.114L238 392.114L224 384.114L210 392.114L224 364.114Z" fill="#C238DA"
        class="el-3 mobile-hide"></path>
    <rect width="323.457" height="38.2286" transform="translate(62 264)" fill="#C238DA" class="el-2 mobile-hide"
        ></rect>
    <path
        d="M81.4042 283.194C81.4042 279.434 83.5322 277.114 86.6682 277.114C88.9082 277.114 90.6682 278.33 91.1642 280.442L88.9082 281.482C88.6042 280.026 87.8202 279.258 86.6682 279.258C85.0842 279.258 84.0922 280.618 84.0922 283.194C84.0922 285.77 85.1162 287.13 86.6682 287.13C88.0122 287.13 88.8282 286.074 89.0042 284.426L91.2922 285.434C90.8282 287.786 89.0682 289.274 86.6682 289.274C83.5322 289.274 81.4042 286.954 81.4042 283.194ZM99.6076 280.602V289.114H97.1436V287.85C96.6796 288.634 95.8316 289.274 94.6956 289.274C93.3676 289.274 92.2956 288.442 92.2956 286.73V280.602H94.7596V286.042C94.7596 286.922 95.1596 287.322 95.8316 287.322C96.6476 287.322 97.1436 286.714 97.1436 285.85V280.602H99.6076ZM104.218 289.274C102.186 289.274 100.89 288.378 100.538 286.81L102.474 286.106C102.666 287.066 103.37 287.658 104.282 287.658C105.05 287.658 105.53 287.226 105.53 286.714C105.53 286.042 104.746 285.866 103.834 285.658C102.522 285.354 100.954 284.97 100.954 283.114C100.954 281.498 102.314 280.442 104.314 280.442C106.17 280.442 107.338 281.386 107.594 282.618L105.85 283.306C105.674 282.474 105.05 282.042 104.25 282.042C103.498 282.042 103.178 282.41 103.178 282.842C103.178 283.498 103.914 283.674 104.81 283.866C106.138 284.154 107.754 284.506 107.754 286.458C107.754 288.41 106.106 289.274 104.218 289.274ZM109.18 287.034V282.426H108.06V280.602H109.18V278.794L111.644 277.674V280.602H113.276V282.426H111.644V286.682C111.644 287.162 111.884 287.434 112.508 287.434C112.684 287.434 112.956 287.418 113.276 287.338V289.098C112.78 289.21 112.268 289.274 111.82 289.274C110.06 289.274 109.18 288.426 109.18 287.034ZM117.952 280.442C120.32 280.442 121.92 282.218 121.92 284.858C121.92 287.498 120.32 289.274 117.952 289.274C115.568 289.274 113.968 287.498 113.968 284.858C113.968 282.218 115.568 280.442 117.952 280.442ZM117.952 282.138C116.912 282.138 116.48 283.162 116.48 284.858C116.48 286.554 116.912 287.578 117.952 287.578C118.976 287.578 119.408 286.554 119.408 284.858C119.408 283.162 118.976 282.138 117.952 282.138ZM123.142 289.114V280.602H125.622V281.866C126.086 281.066 126.886 280.442 127.99 280.442C129.014 280.442 129.894 280.97 130.214 282.042C130.726 281.082 131.606 280.442 132.726 280.442C134.038 280.442 135.078 281.274 135.078 282.986V289.114H132.614V283.674C132.614 282.794 132.246 282.394 131.606 282.394C130.838 282.394 130.358 283.002 130.358 283.866V289.114H127.878V283.674C127.878 282.794 127.51 282.394 126.87 282.394C126.102 282.394 125.622 283.002 125.622 283.866V289.114H123.142ZM143.977 285.306H138.633C138.713 286.89 139.353 287.578 140.313 287.578C141.241 287.578 141.785 286.954 142.025 286.058L143.817 286.938C143.257 288.346 141.977 289.274 140.249 289.274C137.817 289.274 136.249 287.498 136.249 284.858C136.249 282.202 137.833 280.442 140.169 280.442C142.729 280.442 143.977 282.458 143.977 285.05V285.306ZM140.153 282.058C139.273 282.058 138.777 282.714 138.649 283.93H141.673C141.561 282.714 141.017 282.058 140.153 282.058ZM145.142 289.114V280.602H147.622V282.362C147.926 281.466 148.646 280.538 149.718 280.538C149.862 280.538 150.054 280.554 150.246 280.602V283.002C149.926 282.874 149.59 282.826 149.302 282.826C148.262 282.826 147.622 283.578 147.622 284.874V289.114H145.142ZM157.926 280.602H160.182L161.462 286.298L162.838 280.602H165.094L162.838 289.114H160.342L159.046 283.354L157.734 289.114H155.206L152.966 280.602H155.286L156.646 286.298L157.926 280.602ZM173.248 289.082C172.848 289.178 172.48 289.226 172.176 289.226C171.184 289.226 170.592 288.762 170.352 288.122C169.84 288.89 168.976 289.274 167.984 289.274C166.4 289.274 165.264 288.298 165.264 286.682C165.264 284.954 166.48 284.186 168.48 283.914C169.712 283.738 170.16 283.466 170.16 282.922C170.16 282.41 169.76 282.074 169.024 282.074C168.224 282.074 167.584 282.522 167.504 283.402L165.44 282.89C165.92 281.434 167.136 280.442 169.152 280.442C171.088 280.442 172.496 281.354 172.496 283.162V286.954C172.496 287.354 172.736 287.466 173.248 287.37V289.082ZM170.192 286.266V284.714C169.872 284.97 169.44 285.114 168.96 285.21C168.096 285.402 167.632 285.69 167.632 286.506C167.632 287.242 168.064 287.69 168.784 287.69C169.568 287.69 170.192 287.21 170.192 286.266ZM174.159 289.114V280.602H176.639V281.882C177.103 281.082 177.935 280.442 179.071 280.442C180.399 280.442 181.471 281.274 181.471 282.986V289.114H179.007V283.674C179.007 282.794 178.623 282.394 177.935 282.394C177.135 282.394 176.639 283.002 176.639 283.866V289.114H174.159ZM183.347 287.034V282.426H182.227V280.602H183.347V278.794L185.811 277.674V280.602H187.443V282.426H185.811V286.682C185.811 287.162 186.051 287.434 186.675 287.434C186.851 287.434 187.123 287.418 187.443 287.338V289.098C186.947 289.21 186.435 289.274 185.987 289.274C184.227 289.274 183.347 288.426 183.347 287.034ZM191.573 289.274C189.541 289.274 188.245 288.378 187.893 286.81L189.829 286.106C190.021 287.066 190.725 287.658 191.637 287.658C192.405 287.658 192.885 287.226 192.885 286.714C192.885 286.042 192.101 285.866 191.189 285.658C189.877 285.354 188.309 284.97 188.309 283.114C188.309 281.498 189.669 280.442 191.669 280.442C193.525 280.442 194.693 281.386 194.949 282.618L193.205 283.306C193.029 282.474 192.405 282.042 191.605 282.042C190.853 282.042 190.533 282.41 190.533 282.842C190.533 283.498 191.269 283.674 192.165 283.866C193.493 284.154 195.109 284.506 195.109 286.458C195.109 288.41 193.461 289.274 191.573 289.274ZM199.106 287.034V282.426H197.986V280.602H199.106V278.794L201.57 277.674V280.602H203.202V282.426H201.57V286.682C201.57 287.162 201.81 287.434 202.434 287.434C202.61 287.434 202.882 287.418 203.202 287.338V289.098C202.706 289.21 202.194 289.274 201.746 289.274C199.986 289.274 199.106 288.426 199.106 287.034ZM207.877 280.442C210.245 280.442 211.845 282.218 211.845 284.858C211.845 287.498 210.245 289.274 207.877 289.274C205.493 289.274 203.893 287.498 203.893 284.858C203.893 282.218 205.493 280.442 207.877 280.442ZM207.877 282.138C206.837 282.138 206.405 283.162 206.405 284.858C206.405 286.554 206.837 287.578 207.877 287.578C208.901 287.578 209.333 286.554 209.333 284.858C209.333 283.162 208.901 282.138 207.877 282.138ZM218.087 289.114H215.607V277.274H218.087V281.818C218.487 281.034 219.287 280.442 220.295 280.442C222.199 280.442 223.431 282.17 223.431 284.858C223.431 287.562 222.199 289.274 220.295 289.274C219.287 289.274 218.487 288.698 218.087 287.914V289.114ZM218.007 284.65V285.082C218.007 286.618 218.487 287.53 219.431 287.53C220.439 287.53 220.919 286.458 220.919 284.858C220.919 283.258 220.439 282.186 219.431 282.186C218.487 282.186 218.007 283.114 218.007 284.65ZM228.261 280.442C230.629 280.442 232.229 282.218 232.229 284.858C232.229 287.498 230.629 289.274 228.261 289.274C225.877 289.274 224.277 287.498 224.277 284.858C224.277 282.218 225.877 280.442 228.261 280.442ZM228.261 282.138C227.221 282.138 226.789 283.162 226.789 284.858C226.789 286.554 227.221 287.578 228.261 287.578C229.285 287.578 229.717 286.554 229.717 284.858C229.717 283.162 229.285 282.138 228.261 282.138ZM237.066 280.442C239.434 280.442 241.034 282.218 241.034 284.858C241.034 287.498 239.434 289.274 237.066 289.274C234.682 289.274 233.082 287.498 233.082 284.858C233.082 282.218 234.682 280.442 237.066 280.442ZM237.066 282.138C236.026 282.138 235.594 283.162 235.594 284.858C235.594 286.554 236.026 287.578 237.066 287.578C238.09 287.578 238.522 286.554 238.522 284.858C238.522 283.162 238.09 282.138 237.066 282.138ZM242.256 277.274H244.736V283.882L247.408 280.602H249.904L247.264 283.738L250.128 289.114H247.424L245.552 285.61L244.736 286.602V289.114H242.256V277.274ZM260.87 289.082C260.47 289.178 260.102 289.226 259.798 289.226C258.806 289.226 258.214 288.762 257.974 288.122C257.462 288.89 256.598 289.274 255.606 289.274C254.022 289.274 252.886 288.298 252.886 286.682C252.886 284.954 254.102 284.186 256.102 283.914C257.334 283.738 257.782 283.466 257.782 282.922C257.782 282.41 257.382 282.074 256.646 282.074C255.846 282.074 255.206 282.522 255.126 283.402L253.062 282.89C253.542 281.434 254.758 280.442 256.774 280.442C258.71 280.442 260.118 281.354 260.118 283.162V286.954C260.118 287.354 260.358 287.466 260.87 287.37V289.082ZM257.814 286.266V284.714C257.494 284.97 257.062 285.114 256.582 285.21C255.718 285.402 255.254 285.69 255.254 286.506C255.254 287.242 255.686 287.69 256.406 287.69C257.19 287.69 257.814 287.21 257.814 286.266ZM261.78 289.114V280.602H264.26V281.882C264.724 281.082 265.556 280.442 266.692 280.442C268.02 280.442 269.092 281.274 269.092 282.986V289.114H266.628V283.674C266.628 282.794 266.244 282.394 265.556 282.394C264.756 282.394 264.26 283.002 264.26 283.866V289.114H261.78ZM280.707 289.082C280.307 289.178 279.939 289.226 279.635 289.226C278.643 289.226 278.051 288.762 277.811 288.122C277.299 288.89 276.435 289.274 275.443 289.274C273.859 289.274 272.723 288.298 272.723 286.682C272.723 284.954 273.939 284.186 275.939 283.914C277.171 283.738 277.619 283.466 277.619 282.922C277.619 282.41 277.219 282.074 276.483 282.074C275.683 282.074 275.043 282.522 274.963 283.402L272.899 282.89C273.379 281.434 274.595 280.442 276.611 280.442C278.547 280.442 279.955 281.354 279.955 283.162V286.954C279.955 287.354 280.195 287.466 280.707 287.37V289.082ZM277.651 286.266V284.714C277.331 284.97 276.899 285.114 276.419 285.21C275.555 285.402 275.091 285.69 275.091 286.506C275.091 287.242 275.523 287.69 276.243 287.69C277.027 287.69 277.651 287.21 277.651 286.266ZM284.097 291.994H281.617V280.602H284.097V281.818C284.497 281.034 285.297 280.442 286.305 280.442C288.209 280.442 289.441 282.17 289.441 284.858C289.441 287.562 288.209 289.274 286.305 289.274C285.297 289.274 284.497 288.698 284.097 287.914V291.994ZM284.017 284.65V285.082C284.017 286.618 284.497 287.53 285.441 287.53C286.449 287.53 286.929 286.458 286.929 284.858C286.929 283.258 286.449 282.186 285.441 282.186C284.497 282.186 284.017 283.114 284.017 284.65ZM293.137 291.994H290.657V280.602H293.137V281.818C293.537 281.034 294.337 280.442 295.345 280.442C297.249 280.442 298.481 282.17 298.481 284.858C298.481 287.562 297.249 289.274 295.345 289.274C294.337 289.274 293.537 288.698 293.137 287.914V291.994ZM293.057 284.65V285.082C293.057 286.618 293.537 287.53 294.481 287.53C295.489 287.53 295.969 286.458 295.969 284.858C295.969 283.258 295.489 282.186 294.481 282.186C293.537 282.186 293.057 283.114 293.057 284.65ZM303.311 280.442C305.679 280.442 307.279 282.218 307.279 284.858C307.279 287.498 305.679 289.274 303.311 289.274C300.927 289.274 299.327 287.498 299.327 284.858C299.327 282.218 300.927 280.442 303.311 280.442ZM303.311 282.138C302.271 282.138 301.839 283.162 301.839 284.858C301.839 286.554 302.271 287.578 303.311 287.578C304.335 287.578 304.767 286.554 304.767 284.858C304.767 283.162 304.335 282.138 303.311 282.138ZM308.501 279.626V277.45H310.981V279.626H308.501ZM308.501 289.114V280.602H310.981V289.114H308.501ZM312.619 289.114V280.602H315.099V281.882C315.563 281.082 316.395 280.442 317.531 280.442C318.859 280.442 319.931 281.274 319.931 282.986V289.114H317.467V283.674C317.467 282.794 317.083 282.394 316.395 282.394C315.595 282.394 315.099 283.002 315.099 283.866V289.114H312.619ZM321.806 287.034V282.426H320.686V280.602H321.806V278.794L324.27 277.674V280.602H325.902V282.426H324.27V286.682C324.27 287.162 324.51 287.434 325.134 287.434C325.31 287.434 325.582 287.418 325.902 287.338V289.098C325.406 289.21 324.894 289.274 324.446 289.274C322.686 289.274 321.806 288.426 321.806 287.034ZM327.057 289.114V280.602H329.537V281.866C330.001 281.066 330.801 280.442 331.905 280.442C332.929 280.442 333.809 280.97 334.129 282.042C334.641 281.082 335.521 280.442 336.641 280.442C337.953 280.442 338.993 281.274 338.993 282.986V289.114H336.529V283.674C336.529 282.794 336.161 282.394 335.521 282.394C334.753 282.394 334.273 283.002 334.273 283.866V289.114H331.793V283.674C331.793 282.794 331.425 282.394 330.785 282.394C330.017 282.394 329.537 283.002 329.537 283.866V289.114H327.057ZM347.892 285.306H342.548C342.628 286.89 343.268 287.578 344.228 287.578C345.156 287.578 345.7 286.954 345.94 286.058L347.732 286.938C347.172 288.346 345.892 289.274 344.164 289.274C341.732 289.274 340.164 287.498 340.164 284.858C340.164 282.202 341.748 280.442 344.084 280.442C346.644 280.442 347.892 282.458 347.892 285.05V285.306ZM344.068 282.058C343.188 282.058 342.692 282.714 342.564 283.93H345.588C345.476 282.714 344.932 282.058 344.068 282.058ZM349.057 289.114V280.602H351.537V281.882C352.001 281.082 352.833 280.442 353.969 280.442C355.297 280.442 356.369 281.274 356.369 282.986V289.114H353.905V283.674C353.905 282.794 353.521 282.394 352.833 282.394C352.033 282.394 351.537 283.002 351.537 283.866V289.114H349.057ZM358.245 287.034V282.426H357.125V280.602H358.245V278.794L360.709 277.674V280.602H362.341V282.426H360.709V286.682C360.709 287.162 360.949 287.434 361.573 287.434C361.749 287.434 362.021 287.418 362.341 287.338V289.098C361.845 289.21 361.333 289.274 360.885 289.274C359.125 289.274 358.245 288.426 358.245 287.034ZM363.223 289.114V286.426H365.959V289.114H363.223Z"
        fill="#151515" class="el-2 mobile-hide"></path>
    <path d="M224 244.114L238 272.114L224 264.114L210 272.114L224 244.114Z" fill="#C238DA"
        class="el-2 mobile-hide"></path>
    <rect width="323.457" height="38.2286" transform="translate(62 64)" fill="#DB005F" class="el-1"
        ></rect>
    <path
        d="M84.2285 77.1143C86.3565 77.1143 88.1005 78.1383 88.7085 79.8343L86.5965 81.0823C86.2285 79.7703 85.2845 79.1783 84.1965 79.1783C82.5005 79.1783 81.3485 80.5703 81.3485 83.1783C81.3485 85.7703 82.4365 87.2103 84.3245 87.2103C85.2685 87.2103 86.0205 86.8423 86.5005 86.1863V83.8343H83.9085V81.8663H88.9325V86.9543C88.0045 88.2663 86.4365 89.2743 84.2285 89.2743C80.7245 89.2743 78.8045 86.6983 78.8045 83.1623C78.8045 79.6423 80.8365 77.1143 84.2285 77.1143ZM90.4626 89.1143V80.6023H92.9426V82.3623C93.2466 81.4663 93.9666 80.5383 95.0386 80.5383C95.1826 80.5383 95.3746 80.5543 95.5666 80.6023V83.0023C95.2466 82.8743 94.9106 82.8263 94.6226 82.8263C93.5826 82.8263 92.9426 83.5783 92.9426 84.8743V89.1143H90.4626ZM103.83 85.3063H98.4856C98.5656 86.8903 99.2056 87.5783 100.166 87.5783C101.094 87.5783 101.638 86.9543 101.878 86.0583L103.67 86.9383C103.11 88.3463 101.83 89.2743 100.102 89.2743C97.6696 89.2743 96.1016 87.4983 96.1016 84.8583C96.1016 82.2023 97.6856 80.4423 100.022 80.4423C102.582 80.4423 103.83 82.4583 103.83 85.0503V85.3063ZM100.006 82.0583C99.1256 82.0583 98.6296 82.7143 98.5016 83.9303H101.526C101.414 82.7143 100.87 82.0583 100.006 82.0583ZM112.353 85.3063H107.009C107.089 86.8903 107.729 87.5783 108.689 87.5783C109.617 87.5783 110.161 86.9543 110.401 86.0583L112.193 86.9383C111.633 88.3463 110.353 89.2743 108.625 89.2743C106.193 89.2743 104.625 87.4983 104.625 84.8583C104.625 82.2023 106.209 80.4423 108.545 80.4423C111.105 80.4423 112.353 82.4583 112.353 85.0503V85.3063ZM108.529 82.0583C107.649 82.0583 107.153 82.7143 107.025 83.9303H110.049C109.937 82.7143 109.393 82.0583 108.529 82.0583ZM113.854 87.0343V82.4263H112.734V80.6023H113.854V78.7943L116.318 77.6743V80.6023H117.95V82.4263H116.318V86.6823C116.318 87.1623 116.558 87.4343 117.182 87.4343C117.358 87.4343 117.63 87.4183 117.95 87.3383V89.0983C117.454 89.2103 116.942 89.2743 116.494 89.2743C114.734 89.2743 113.854 88.4263 113.854 87.0343ZM123.74 84.8583C123.74 86.4263 124.124 87.5783 125.18 87.5783C126.06 87.5783 126.46 86.8103 126.556 85.7703L128.668 86.3623C128.316 88.2823 126.86 89.2743 125.116 89.2743C122.86 89.2743 121.228 87.4983 121.228 84.8583C121.228 82.2023 122.844 80.4423 125.164 80.4423C126.844 80.4423 128.332 81.3383 128.62 83.1943L126.524 83.7863C126.396 82.8103 125.98 82.1543 125.18 82.1543C124.124 82.1543 123.74 83.2743 123.74 84.8583ZM137.01 80.6023V89.1143H134.546V87.8503C134.082 88.6343 133.234 89.2743 132.098 89.2743C130.77 89.2743 129.698 88.4423 129.698 86.7303V80.6023H132.162V86.0423C132.162 86.9223 132.562 87.3223 133.234 87.3223C134.05 87.3223 134.546 86.7143 134.546 85.8503V80.6023H137.01ZM141.621 89.2743C139.589 89.2743 138.293 88.3783 137.941 86.8103L139.877 86.1063C140.069 87.0663 140.773 87.6583 141.685 87.6583C142.453 87.6583 142.933 87.2263 142.933 86.7143C142.933 86.0423 142.149 85.8663 141.237 85.6583C139.925 85.3543 138.357 84.9703 138.357 83.1143C138.357 81.4983 139.717 80.4423 141.717 80.4423C143.573 80.4423 144.741 81.3863 144.997 82.6183L143.253 83.3063C143.077 82.4743 142.453 82.0423 141.653 82.0423C140.901 82.0423 140.581 82.4103 140.581 82.8423C140.581 83.4983 141.317 83.6743 142.213 83.8663C143.541 84.1543 145.157 84.5063 145.157 86.4583C145.157 88.4103 143.509 89.2743 141.621 89.2743ZM146.582 87.0343V82.4263H145.462V80.6023H146.582V78.7943L149.046 77.6743V80.6023H150.678V82.4263H149.046V86.6823C149.046 87.1623 149.286 87.4343 149.91 87.4343C150.086 87.4343 150.358 87.4183 150.678 87.3383V89.0983C150.182 89.2103 149.67 89.2743 149.222 89.2743C147.462 89.2743 146.582 88.4263 146.582 87.0343ZM155.354 80.4423C157.722 80.4423 159.322 82.2183 159.322 84.8583C159.322 87.4983 157.722 89.2743 155.354 89.2743C152.97 89.2743 151.37 87.4983 151.37 84.8583C151.37 82.2183 152.97 80.4423 155.354 80.4423ZM155.354 82.1383C154.314 82.1383 153.882 83.1623 153.882 84.8583C153.882 86.5543 154.314 87.5783 155.354 87.5783C156.378 87.5783 156.81 86.5543 156.81 84.8583C156.81 83.1623 156.378 82.1383 155.354 82.1383ZM160.544 89.1143V80.6023H163.024V81.8663C163.488 81.0663 164.288 80.4423 165.392 80.4423C166.416 80.4423 167.296 80.9703 167.616 82.0423C168.128 81.0823 169.008 80.4423 170.128 80.4423C171.44 80.4423 172.48 81.2743 172.48 82.9863V89.1143H170.016V83.6743C170.016 82.7943 169.648 82.3943 169.008 82.3943C168.24 82.3943 167.76 83.0023 167.76 83.8663V89.1143H165.28V83.6743C165.28 82.7943 164.912 82.3943 164.272 82.3943C163.504 82.3943 163.024 83.0023 163.024 83.8663V89.1143H160.544ZM181.38 85.3063H176.036C176.116 86.8903 176.756 87.5783 177.716 87.5783C178.644 87.5783 179.188 86.9543 179.428 86.0583L181.22 86.9383C180.66 88.3463 179.38 89.2743 177.652 89.2743C175.22 89.2743 173.652 87.4983 173.652 84.8583C173.652 82.2023 175.236 80.4423 177.572 80.4423C180.132 80.4423 181.38 82.4583 181.38 85.0503V85.3063ZM177.556 82.0583C176.676 82.0583 176.18 82.7143 176.052 83.9303H179.076C178.964 82.7143 178.42 82.0583 177.556 82.0583ZM182.545 89.1143V80.6023H185.025V82.3623C185.329 81.4663 186.049 80.5383 187.121 80.5383C187.265 80.5383 187.457 80.5543 187.649 80.6023V83.0023C187.329 82.8743 186.993 82.8263 186.705 82.8263C185.665 82.8263 185.025 83.5783 185.025 84.8743V89.1143H182.545ZM198.736 89.0823C198.336 89.1783 197.968 89.2263 197.664 89.2263C196.672 89.2263 196.08 88.7623 195.84 88.1223C195.328 88.8903 194.464 89.2743 193.472 89.2743C191.888 89.2743 190.752 88.2983 190.752 86.6823C190.752 84.9543 191.968 84.1863 193.968 83.9143C195.2 83.7383 195.648 83.4663 195.648 82.9223C195.648 82.4103 195.248 82.0743 194.512 82.0743C193.712 82.0743 193.072 82.5223 192.992 83.4023L190.928 82.8903C191.408 81.4343 192.624 80.4423 194.64 80.4423C196.576 80.4423 197.984 81.3543 197.984 83.1623V86.9543C197.984 87.3543 198.224 87.4663 198.736 87.3703V89.0823ZM195.68 86.2663V84.7143C195.36 84.9703 194.928 85.1143 194.448 85.2103C193.584 85.4023 193.12 85.6903 193.12 86.5063C193.12 87.2423 193.552 87.6903 194.272 87.6903C195.056 87.6903 195.68 87.2103 195.68 86.2663ZM199.647 89.1143V80.6023H202.127V81.8823C202.591 81.0823 203.423 80.4423 204.559 80.4423C205.887 80.4423 206.959 81.2743 206.959 82.9863V89.1143H204.495V83.6743C204.495 82.7943 204.111 82.3943 203.423 82.3943C202.623 82.3943 202.127 83.0023 202.127 83.8663V89.1143H199.647ZM213.474 89.1143V87.9143C213.074 88.6983 212.274 89.2743 211.266 89.2743C209.362 89.2743 208.13 87.5623 208.13 84.8583C208.13 82.1703 209.362 80.4423 211.266 80.4423C212.274 80.4423 213.074 81.0343 213.474 81.8183V77.2743H215.938V89.1143H213.474ZM213.538 84.6503C213.538 83.1143 213.058 82.1863 212.13 82.1863C211.106 82.1863 210.642 83.2583 210.642 84.8583C210.642 86.4583 211.106 87.5303 212.13 87.5303C213.058 87.5303 213.538 86.6183 213.538 85.0823V84.6503ZM227.613 89.0823C227.213 89.1783 226.845 89.2263 226.541 89.2263C225.549 89.2263 224.957 88.7623 224.717 88.1223C224.205 88.8903 223.341 89.2743 222.349 89.2743C220.765 89.2743 219.629 88.2983 219.629 86.6823C219.629 84.9543 220.845 84.1863 222.845 83.9143C224.077 83.7383 224.525 83.4663 224.525 82.9223C224.525 82.4103 224.125 82.0743 223.389 82.0743C222.589 82.0743 221.949 82.5223 221.869 83.4023L219.805 82.8903C220.285 81.4343 221.501 80.4423 223.517 80.4423C225.453 80.4423 226.861 81.3543 226.861 83.1623V86.9543C226.861 87.3543 227.101 87.4663 227.613 87.3703V89.0823ZM224.557 86.2663V84.7143C224.237 84.9703 223.805 85.1143 223.325 85.2103C222.461 85.4023 221.997 85.6903 221.997 86.5063C221.997 87.2423 222.429 87.6903 223.149 87.6903C223.933 87.6903 224.557 87.2103 224.557 86.2663ZM231.562 89.2743C229.53 89.2743 228.234 88.3783 227.882 86.8103L229.818 86.1063C230.01 87.0663 230.714 87.6583 231.626 87.6583C232.394 87.6583 232.874 87.2263 232.874 86.7143C232.874 86.0423 232.09 85.8663 231.178 85.6583C229.866 85.3543 228.298 84.9703 228.298 83.1143C228.298 81.4983 229.658 80.4423 231.658 80.4423C233.514 80.4423 234.682 81.3863 234.938 82.6183L233.194 83.3063C233.018 82.4743 232.394 82.0423 231.594 82.0423C230.842 82.0423 230.522 82.4103 230.522 82.8423C230.522 83.4983 231.258 83.6743 232.154 83.8663C233.482 84.1543 235.098 84.5063 235.098 86.4583C235.098 88.4103 233.45 89.2743 231.562 89.2743ZM236.219 77.2743H238.699V83.8823L241.371 80.6023H243.867L241.227 83.7383L244.091 89.1143H241.387L239.515 85.6103L238.699 86.6023V89.1143H236.219V77.2743ZM247.345 89.1143V77.2743H249.825V81.8823C250.289 81.0823 251.121 80.4423 252.257 80.4423C253.585 80.4423 254.657 81.2743 254.657 82.9863V89.1143H252.193V83.6743C252.193 82.7943 251.777 82.3943 251.105 82.3943C250.305 82.3943 249.825 83.0023 249.825 83.8663V89.1143H247.345ZM259.811 80.4423C262.179 80.4423 263.779 82.2183 263.779 84.8583C263.779 87.4983 262.179 89.2743 259.811 89.2743C257.427 89.2743 255.827 87.4983 255.827 84.8583C255.827 82.2183 257.427 80.4423 259.811 80.4423ZM259.811 82.1383C258.771 82.1383 258.339 83.1623 258.339 84.8583C258.339 86.5543 258.771 87.5783 259.811 87.5783C260.835 87.5783 261.267 86.5543 261.267 84.8583C261.267 83.1623 260.835 82.1383 259.811 82.1383ZM268.956 80.6023H271.212L272.492 86.2983L273.868 80.6023H276.124L273.868 89.1143H271.372L270.076 83.3543L268.764 89.1143H266.236L263.996 80.6023H266.316L267.676 86.2983L268.956 80.6023ZM280.976 80.6023L282.576 86.3463L284.176 80.6023H286.48L283.6 89.5943C283.12 91.0983 282.256 92.1543 280.624 92.1543C280.256 92.1543 279.792 92.1063 279.328 91.9463V90.0903C279.648 90.2343 279.936 90.2823 280.16 90.2823C280.72 90.2823 280.992 89.9623 281.168 89.4503L281.248 89.1623L278.512 80.6023H280.976ZM290.641 80.4423C293.009 80.4423 294.609 82.2183 294.609 84.8583C294.609 87.4983 293.009 89.2743 290.641 89.2743C288.257 89.2743 286.657 87.4983 286.657 84.8583C286.657 82.2183 288.257 80.4423 290.641 80.4423ZM290.641 82.1383C289.601 82.1383 289.169 83.1623 289.169 84.8583C289.169 86.5543 289.601 87.5783 290.641 87.5783C291.665 87.5783 292.097 86.5543 292.097 84.8583C292.097 83.1623 291.665 82.1383 290.641 82.1383ZM303.095 80.6023V89.1143H300.631V87.8503C300.167 88.6343 299.319 89.2743 298.183 89.2743C296.855 89.2743 295.783 88.4423 295.783 86.7303V80.6023H298.247V86.0423C298.247 86.9223 298.647 87.3223 299.319 87.3223C300.135 87.3223 300.631 86.7143 300.631 85.8503V80.6023H303.095ZM309.365 84.8583C309.365 86.4263 309.749 87.5783 310.805 87.5783C311.685 87.5783 312.085 86.8103 312.181 85.7703L314.293 86.3623C313.941 88.2823 312.485 89.2743 310.741 89.2743C308.485 89.2743 306.853 87.4983 306.853 84.8583C306.853 82.2023 308.469 80.4423 310.789 80.4423C312.469 80.4423 313.957 81.3383 314.245 83.1943L312.149 83.7863C312.021 82.8103 311.605 82.1543 310.805 82.1543C309.749 82.1543 309.365 83.2743 309.365 84.8583ZM322.812 89.0823C322.412 89.1783 322.044 89.2263 321.74 89.2263C320.748 89.2263 320.156 88.7623 319.916 88.1223C319.404 88.8903 318.54 89.2743 317.548 89.2743C315.964 89.2743 314.828 88.2983 314.828 86.6823C314.828 84.9543 316.044 84.1863 318.044 83.9143C319.276 83.7383 319.724 83.4663 319.724 82.9223C319.724 82.4103 319.324 82.0743 318.588 82.0743C317.788 82.0743 317.148 82.5223 317.068 83.4023L315.004 82.8903C315.484 81.4343 316.7 80.4423 318.716 80.4423C320.652 80.4423 322.06 81.3543 322.06 83.1623V86.9543C322.06 87.3543 322.3 87.4663 322.812 87.3703V89.0823ZM319.756 86.2663V84.7143C319.436 84.9703 319.004 85.1143 318.524 85.2103C317.66 85.4023 317.196 85.6903 317.196 86.5063C317.196 87.2423 317.628 87.6903 318.348 87.6903C319.132 87.6903 319.756 87.2103 319.756 86.2663ZM323.723 89.1143V80.6023H326.203V81.8823C326.667 81.0823 327.499 80.4423 328.635 80.4423C329.963 80.4423 331.035 81.2743 331.035 82.9863V89.1143H328.571V83.6743C328.571 82.7943 328.187 82.3943 327.499 82.3943C326.699 82.3943 326.203 83.0023 326.203 83.8663V89.1143H323.723ZM335.161 89.1143V77.2743H337.641V81.8823C338.105 81.0823 338.937 80.4423 340.073 80.4423C341.401 80.4423 342.473 81.2743 342.473 82.9863V89.1143H340.009V83.6743C340.009 82.7943 339.593 82.3943 338.921 82.3943C338.121 82.3943 337.641 83.0023 337.641 83.8663V89.1143H335.161ZM351.372 85.3063H346.028C346.108 86.8903 346.748 87.5783 347.708 87.5783C348.636 87.5783 349.18 86.9543 349.42 86.0583L351.212 86.9383C350.652 88.3463 349.372 89.2743 347.644 89.2743C345.212 89.2743 343.644 87.4983 343.644 84.8583C343.644 82.2023 345.228 80.4423 347.564 80.4423C350.124 80.4423 351.372 82.4583 351.372 85.0503V85.3063ZM347.548 82.0583C346.668 82.0583 346.172 82.7143 346.044 83.9303H349.068C348.956 82.7143 348.412 82.0583 347.548 82.0583ZM352.536 89.1143V77.2743H355.016V89.1143H352.536ZM359.134 91.9943H356.654V80.6023H359.134V81.8183C359.534 81.0343 360.334 80.4423 361.342 80.4423C363.246 80.4423 364.478 82.1703 364.478 84.8583C364.478 87.5623 363.246 89.2743 361.342 89.2743C360.334 89.2743 359.534 88.6983 359.134 87.9143V91.9943ZM359.054 84.6503V85.0823C359.054 86.6183 359.534 87.5303 360.478 87.5303C361.486 87.5303 361.966 86.4583 361.966 84.8583C361.966 83.2583 361.486 82.1863 360.478 82.1863C359.534 82.1863 359.054 83.1143 359.054 84.6503ZM365.264 89.1143V86.4263H368V89.1143H365.264Z"
        fill="#151515" class="el-1" style="will-change: opacity; opacity: 1;"></path>
    <path d="M224 44.1143L238 72.1143L224 64.1143L210 72.1143L224 44.1143Z" fill="#DB005F"
        class="el-1" style="will-change: opacity; opacity: 1;"></path>
</svg>